<mxfile host="65bd71144e">
    <diagram id="pIsPSVw4wNhW4OB5O9Dt" name="Page-1">
        <mxGraphModel dx="1957" dy="685" grid="1" gridSize="10" guides="1" tooltips="1" connect="1" arrows="1" fold="1" page="1" pageScale="1" pageWidth="850" pageHeight="1100" math="0" shadow="0">
            <root>
                <mxCell id="0"/>
                <mxCell id="1" parent="0"/>
                <mxCell id="184" value="" style="rounded=0;whiteSpace=wrap;html=1;shadow=1;fontFamily=Lucida Console;" vertex="1" parent="1">
                    <mxGeometry x="50" y="250" width="160" height="40" as="geometry"/>
                </mxCell>
                <mxCell id="165" value="Material" style="rounded=0;whiteSpace=wrap;html=1;shadow=1;fontFamily=Lucida Console;" parent="1" vertex="1">
                    <mxGeometry x="240" width="160" height="40" as="geometry"/>
                </mxCell>
                <mxCell id="172" style="edgeStyle=orthogonalEdgeStyle;rounded=0;orthogonalLoop=1;jettySize=auto;html=1;exitX=0.5;exitY=0;exitDx=0;exitDy=0;endArrow=none;endFill=0;" parent="1" source="166" edge="1">
                    <mxGeometry relative="1" as="geometry">
                        <mxPoint x="320" y="80" as="targetPoint"/>
                        <Array as="points">
                            <mxPoint x="120" y="80"/>
                            <mxPoint x="290" y="80"/>
                        </Array>
                    </mxGeometry>
                </mxCell>
                <mxCell id="166" value="ForwardMaterial" style="rounded=0;whiteSpace=wrap;html=1;shadow=1;fontFamily=Lucida Console;" parent="1" vertex="1">
                    <mxGeometry x="40" y="120" width="160" height="40" as="geometry"/>
                </mxCell>
                <mxCell id="171" style="edgeStyle=orthogonalEdgeStyle;rounded=0;orthogonalLoop=1;jettySize=auto;html=1;exitX=0.5;exitY=0;exitDx=0;exitDy=0;endArrow=block;endFill=0;entryX=0.5;entryY=1;entryDx=0;entryDy=0;" parent="1" source="168" target="165" edge="1">
                    <mxGeometry relative="1" as="geometry">
                        <mxPoint x="320" y="60" as="targetPoint"/>
                        <Array as="points"/>
                    </mxGeometry>
                </mxCell>
                <mxCell id="168" value="DeferredMaterial" style="rounded=0;whiteSpace=wrap;html=1;shadow=1;fontFamily=Lucida Console;" parent="1" vertex="1">
                    <mxGeometry x="240" y="120" width="160" height="40" as="geometry"/>
                </mxCell>
                <mxCell id="173" style="edgeStyle=orthogonalEdgeStyle;rounded=0;orthogonalLoop=1;jettySize=auto;html=1;exitX=0.5;exitY=0;exitDx=0;exitDy=0;endArrow=none;endFill=0;" parent="1" source="169" edge="1">
                    <mxGeometry relative="1" as="geometry">
                        <mxPoint x="320" y="80" as="targetPoint"/>
                        <Array as="points">
                            <mxPoint x="520" y="80"/>
                        </Array>
                    </mxGeometry>
                </mxCell>
                <mxCell id="169" value="PostProcessMaterial" style="rounded=0;whiteSpace=wrap;html=1;shadow=1;fontFamily=Lucida Console;" parent="1" vertex="1">
                    <mxGeometry x="440" y="120" width="160" height="40" as="geometry"/>
                </mxCell>
                <mxCell id="174" value="" style="endArrow=none;dashed=1;html=1;dashPattern=1 3;strokeWidth=2;" edge="1" parent="1">
                    <mxGeometry width="50" height="50" relative="1" as="geometry">
                        <mxPoint y="200" as="sourcePoint"/>
                        <mxPoint x="640" y="200" as="targetPoint"/>
                    </mxGeometry>
                </mxCell>
                <mxCell id="176" style="edgeStyle=orthogonalEdgeStyle;rounded=0;orthogonalLoop=1;jettySize=auto;html=1;exitX=0.5;exitY=0;exitDx=0;exitDy=0;entryX=0.5;entryY=1;entryDx=0;entryDy=0;endArrow=block;endFill=0;" edge="1" parent="1" source="175" target="166">
                    <mxGeometry relative="1" as="geometry"/>
                </mxCell>
                <mxCell id="175" value="MyFwdMaterial" style="rounded=0;whiteSpace=wrap;html=1;shadow=1;fontFamily=Lucida Console;" vertex="1" parent="1">
                    <mxGeometry x="40" y="240" width="160" height="40" as="geometry"/>
                </mxCell>
                <mxCell id="180" value="SOL classes" style="text;html=1;strokeColor=none;fillColor=none;align=left;verticalAlign=bottom;whiteSpace=wrap;rounded=0;fontFamily=Lucida Console;horizontal=1;" vertex="1" parent="1">
                    <mxGeometry y="180" width="90" height="20" as="geometry"/>
                </mxCell>
                <mxCell id="181" value="User classes" style="text;html=1;strokeColor=none;fillColor=none;align=left;verticalAlign=top;whiteSpace=wrap;rounded=0;fontFamily=Lucida Console;" vertex="1" parent="1">
                    <mxGeometry y="200" width="90" height="20" as="geometry"/>
                </mxCell>
                <mxCell id="183" style="edgeStyle=orthogonalEdgeStyle;rounded=0;orthogonalLoop=1;jettySize=auto;html=1;exitX=0.5;exitY=0;exitDx=0;exitDy=0;entryX=0.5;entryY=1;entryDx=0;entryDy=0;fontFamily=Lucida Console;endArrow=block;endFill=0;" edge="1" parent="1" source="182" target="168">
                    <mxGeometry relative="1" as="geometry"/>
                </mxCell>
                <mxCell id="182" value="&amp;lt;etc&amp;gt;" style="rounded=0;whiteSpace=wrap;html=1;shadow=1;fontFamily=Lucida Console;dashed=1;" vertex="1" parent="1">
                    <mxGeometry x="240" y="240" width="160" height="40" as="geometry"/>
                </mxCell>
                <mxCell id="186" style="edgeStyle=orthogonalEdgeStyle;rounded=0;orthogonalLoop=1;jettySize=auto;html=1;exitX=0.5;exitY=0;exitDx=0;exitDy=0;entryX=0.5;entryY=1;entryDx=0;entryDy=0;fontFamily=Lucida Console;endArrow=block;endFill=0;" edge="1" parent="1" source="185" target="169">
                    <mxGeometry relative="1" as="geometry"/>
                </mxCell>
                <mxCell id="185" value="&amp;lt;etc&amp;gt;" style="rounded=0;whiteSpace=wrap;html=1;shadow=1;fontFamily=Lucida Console;dashed=1;" vertex="1" parent="1">
                    <mxGeometry x="440" y="240" width="160" height="40" as="geometry"/>
                </mxCell>
            </root>
        </mxGraphModel>
    </diagram>
</mxfile>